# xmcd CD database file
#
# Track frame offsets:
#	150
#	13738
#	28833
#	41328
#	57704
#	72297
#	85960
#	100540
#	114404
#	133241
#	139860
#	155056
#	169283
#	182721
#	195831
#	208201
#	223057
#	235779
#
# Disc length: 3285 seconds
#
# Revision: 0
# Processed by: cddbd v1.5.1PL0 Copyright (c) Steve Scherf et al.
# Submitted via: CDex 1.51
#
DISCID=090cd312
DTITLE=Jimmy Dorsey - Tangerine
DYEAR=1900
DGENRE=Jazz
TTITLE0=Tangerine
TTITLE1=Cherokee
TTITLE2=I'm Just Wild About Harry
TTITLE3=Green Eyes
TTITLE4=Deep Purple
TTITLE5=There I've Said It Again
TTITLE6=I'll Always Be In Love With You
TTITLE7=Slap That Bass
TTITLE8=Song Of The Volga Boatman
TTITLE9=If You Build A Better Mousetrap
TTITLE10=Stompin' At The Savoy
TTITLE11=Boston Tea Party
TTITLE12=In A Sentimental Mood
TTITLE13=Chicken Reel
TTITLE14=(not named)
TTITLE15=Stop Look and Listen
TTITLE16=Waddlin' At The Waldorf
TTITLE17=After You've Gone
EXTD=
EXTT0=
EXTT1=
EXTT2=
EXTT3=
EXTT4=
EXTT5=
EXTT6=
EXTT7=
EXTT8=
EXTT9=
EXTT10=
EXTT11=
EXTT12=
EXTT13=
EXTT14=
EXTT15=
EXTT16=
EXTT17=
PLAYORDER=
